<?xml version="1.0" standalone="no"?>
<!DOCTYPE svg PUBLIC "-//W3C//DTD SVG 20010904//EN"
 "http://www.w3.org/TR/2001/REC-SVG-20010904/DTD/svg10.dtd">
<svg version="1.0" xmlns="http://www.w3.org/2000/svg"
 width="700.000000pt" height="700.000000pt" viewBox="0 0 700.000000 700.000000"
 preserveAspectRatio="xMidYMid meet">
<metadata>
Created by potrace 1.11, written by Peter Selinger 2001-2013
</metadata>
<g transform="translate(0.000000,700.000000) scale(0.100000,-0.100000)"
fill="#000000" stroke="none">
<path d="M6075 6058 c-17 -10 -179 -87 -440 -208 -33 -15 -163 -76 -290 -135
-126 -59 -264 -123 -305 -142 -41 -20 -126 -60 -189 -89 -62 -30 -114 -54
-116 -54 -2 0 -56 -25 -121 -56 -66 -31 -146 -69 -179 -84 -33 -15 -100 -47
-150 -70 -49 -23 -117 -55 -150 -70 -33 -15 -113 -53 -179 -84 -65 -31 -120
-56 -121 -56 -2 0 -59 -26 -127 -59 -176 -84 -299 -141 -302 -141 -2 0 -70
-31 -150 -70 -81 -38 -148 -70 -150 -70 -2 0 -74 -34 -160 -75 -86 -41 -158
-75 -160 -75 -2 0 -55 -24 -117 -54 -63 -29 -145 -68 -184 -86 -38 -18 -169
-79 -290 -135 -121 -57 -256 -119 -300 -140 -44 -20 -120 -56 -170 -80 -49
-24 -120 -57 -157 -74 -158 -72 -201 -92 -343 -159 -82 -38 -186 -87 -230
-107 -44 -21 -132 -62 -195 -92 -63 -30 -132 -62 -152 -70 -21 -8 -38 -18 -38
-22 0 -3 127 -48 282 -99 156 -51 398 -130 538 -176 140 -46 498 -163 795
-260 297 -98 551 -182 565 -187 23 -9 34 -35 104 -252 43 -133 81 -251 86
-262 5 -11 90 -270 190 -575 100 -305 225 -685 277 -845 l96 -290 16 35 c8 19
41 89 72 155 31 66 68 147 84 180 15 33 42 92 60 130 18 39 49 104 68 145 19
41 98 210 175 375 77 165 156 334 175 375 19 41 54 116 77 165 23 50 56 119
72 155 17 36 45 97 63 135 18 39 62 133 98 210 36 77 88 190 117 250 29 61 62
133 75 160 25 55 76 165 137 295 22 47 54 114 70 150 16 36 46 99 65 140 46
97 106 225 126 270 8 19 40 87 70 150 30 63 64 135 75 160 11 25 48 103 81
173 34 71 61 130 61 132 0 1 32 69 70 149 39 81 70 149 70 151 0 2 26 59 59
127 32 67 71 150 86 183 15 33 44 94 63 135 20 41 36 77 37 80 2 6 36 79 119
253 31 65 56 120 56 121 0 2 26 59 59 127 71 151 111 238 111 244 0 8 -14 5
-35 -7z"/>
</g>
</svg>
